<?xml version="1.0" encoding="utf-8"?>
<!-- Generator: Adobe Illustrator 22.1.0, SVG Export Plug-In . SVG Version: 6.00 Build 0)  -->
<svg version="1.1" id="_x30_" xmlns="http://www.w3.org/2000/svg" xmlns:xlink="http://www.w3.org/1999/xlink" x="0px" y="0px"
	 viewBox="0 0 624 153.8" style="enable-background:new 0 0 624 153.8;" xml:space="preserve">
<style type="text/css">
	.st0{fill:#303846;}
</style>
<g id="POLYLINE_8_">
	<polygon class="st0" points="533.8,36.4 533.8,39.2 533.8,44.4 533.8,47.1 566.3,47.1 566.3,123 582.5,123 582.5,47.1 615,47.1 
		615,44.4 615,39.2 615,36.4 615,33.6 615,30.9 536.5,30.9 533.8,30.9 533.8,33.6 	"/>
</g>
<g id="POLYLINE_22_">
	<polyline class="st0" points="457.8,109.9 471.4,98.7 471.6,99.3 471.8,99.9 472.1,100.5 472.4,101 472.6,101.3 472.7,101.6 
		472.9,101.9 473,102.2 473.2,102.4 473.4,102.7 473.6,102.9 473.7,103.2 474,103.5 474.3,103.9 474.5,104.2 474.8,104.5 
		475.1,104.8 475.4,105.1 475.7,105.4 476,105.7 476.4,105.9 476.7,106.2 477,106.5 477.4,106.7 477.7,106.9 478.1,107.2 
		478.5,107.4 478.8,107.6 479.2,107.8 479.6,108 480,108.2 480.4,108.3 480.8,108.5 481.3,108.7 481.7,108.8 482.1,109 482.5,109.1 
		483,109.2 483.4,109.4 483.8,109.5 484.2,109.6 484.7,109.7 485.1,109.7 485.5,109.8 485.9,109.9 486.4,109.9 486.8,110 487.2,110 
		487.7,110 488.1,110 488.5,110.1 489,110.1 489.4,110 489.9,110 490.3,110 490.7,110 491.2,109.9 491.6,109.9 492,109.8 
		492.5,109.7 492.9,109.6 493.3,109.5 493.8,109.4 494.2,109.3 494.7,109.2 495.1,109.1 495.5,108.9 495.9,108.8 496.3,108.6 
		496.7,108.5 497.1,108.3 497.5,108.1 497.9,108 498.2,107.8 498.6,107.5 499,107.3 499.4,107.1 499.7,106.9 500.1,106.6 
		500.4,106.4 500.7,106.1 501,105.8 501.3,105.6 501.6,105.3 501.9,105 502.2,104.7 502.4,104.4 502.6,104.2 502.7,104 502.9,103.8 
		503,103.6 503.3,103.3 503.5,102.9 503.6,102.8 503.7,102.6 503.8,102.4 503.9,102.2 504,102.1 504,101.9 504.1,101.7 504.2,101.6 
		504.2,101.4 504.3,101.2 504.4,101 504.4,100.8 504.5,100.7 504.5,100.5 504.6,100.3 504.6,100.1 504.7,99.9 504.7,99.7 
		504.7,99.5 504.7,99.3 504.8,99.1 504.8,98.9 504.8,98.7 504.8,98.3 504.8,97.9 504.8,97.5 504.8,97 504.8,96.6 504.8,96.2 
		504.7,95.7 504.7,95.3 504.6,94.9 504.6,94.7 504.5,94.6 504.5,94.4 504.4,94.2 504.4,94 504.3,93.8 504.3,93.6 504.2,93.5 
		504.1,93.3 504.1,93.1 504,93 503.9,92.8 503.8,92.7 503.7,92.5 503.7,92.3 503.6,92.2 503.5,92 503.4,91.9 503.3,91.7 503.1,91.6 
		503,91.5 502.9,91.3 502.8,91.2 502.7,91 502.5,90.9 502.4,90.8 502.3,90.6 502.1,90.5 502,90.4 501.8,90.2 501.7,90.1 501.5,90 
		501.4,89.9 501.2,89.7 500.9,89.5 500.5,89.3 500.2,89 499.8,88.8 499.4,88.6 499,88.4 498.6,88.2 497.8,87.8 496.9,87.4 
		496.1,87.1 495.2,86.7 493.6,86.1 484.2,82.9 482.8,82.5 481.4,82 480,81.5 478.6,80.9 476.8,80.1 475.4,79.5 474.8,79.2 
		474.1,78.8 473.4,78.5 472.7,78.1 472.1,77.7 471.4,77.2 470.8,76.8 470.1,76.3 469.5,75.8 468.9,75.3 468.3,74.8 467.7,74.3 
		467.2,73.7 466.9,73.4 466.6,73.2 466.4,72.9 466.1,72.5 465.9,72.2 465.6,71.9 465.4,71.6 465.1,71.3 464.9,71 464.7,70.6 
		464.4,70.3 464.2,70 463.8,69.3 463.4,68.6 463.1,67.8 462.7,67.1 462.5,66.7 462.4,66.3 462.2,65.8 462,65.3 461.9,64.9 
		461.7,64.5 461.6,64.1 461.5,63.7 461.3,62.9 461.2,62.1 461,61.4 460.9,60.6 460.8,59.8 460.8,59 460.7,58.2 460.7,57.5 
		460.7,56.7 460.7,55.9 460.7,55.2 460.7,54.4 460.8,53.6 460.9,52.8 461,52.1 461.1,51.3 461.2,50.5 461.4,49.7 461.6,49 
		461.8,48.2 462,47.4 462.3,46.7 462.5,46.3 462.6,45.9 462.8,45.6 462.9,45.2 463.1,44.8 463.3,44.4 463.6,43.9 464,43.2 
		464.4,42.5 464.8,41.9 465.2,41.2 465.7,40.6 466.2,40 466.7,39.4 467.2,38.8 467.7,38.2 468.3,37.7 468.8,37.1 469.4,36.6 
		470,36.1 470.7,35.6 471.3,35.1 471.9,34.7 472.6,34.2 473.2,33.8 473.9,33.4 474.6,33 475.3,32.7 476,32.3 476.7,32 477.4,31.7 
		478.1,31.4 478.8,31.1 479.5,30.8 480.1,30.6 480.8,30.4 481.4,30.2 482,30 482.8,29.8 483.5,29.6 484.3,29.5 485,29.3 485.8,29.2 
		486.5,29.1 487.3,28.9 488,28.8 488.8,28.8 489.5,28.7 490.3,28.6 491,28.6 492.5,28.6 494.1,28.6 495.5,28.6 497,28.7 498.5,28.9 
		499.3,29 500,29.1 500.9,29.2 501.9,29.4 502.6,29.6 503.3,29.8 504.1,29.9 504.8,30.2 505.5,30.4 506.2,30.6 507,30.9 507.7,31.1 
		508.5,31.4 509.2,31.8 510,32.1 510.7,32.5 511.4,32.9 512,33.3 512.7,33.7 513.3,34.1 513.8,34.4 514.2,34.8 514.6,35.1 515,35.4 
		515.6,35.9 516.2,36.4 516.8,36.9 517.3,37.5 517.9,38 518.4,38.6 518.9,39.1 519.4,39.7 521.2,41.9 519.1,43.7 514.8,47.4 
		510.6,51 508.1,53.2 506.4,50.4 506.2,50.2 506.1,49.9 505.9,49.7 505.7,49.5 505.6,49.2 505.4,49 505.2,48.8 505,48.6 504.9,48.4 
		504.7,48.2 504.5,48 504.3,47.8 504.1,47.6 503.9,47.4 503.7,47.2 503.5,47.1 503.2,46.9 503,46.7 502.8,46.6 502.6,46.4 
		502.3,46.3 502.1,46.1 501.9,46 501.6,45.9 501.4,45.7 501.2,45.6 500.9,45.5 500.4,45.3 499.8,45.1 499.3,44.8 498.9,44.7 
		498.5,44.6 498,44.4 497.4,44.3 496.8,44.2 496.2,44.1 495.6,44 495.1,43.9 494.5,43.9 493.9,43.8 493.3,43.8 492.7,43.8 
		492.1,43.8 491.5,43.8 490.9,43.9 490.2,44 489.6,44 489,44.1 488.4,44.2 487.8,44.4 487.2,44.5 486.6,44.7 486.1,44.8 485.5,45 
		484.9,45.2 484.4,45.4 484.1,45.5 483.9,45.7 483.6,45.8 483.1,46.1 482.8,46.2 482.6,46.3 482.3,46.5 482.1,46.6 481.8,46.8 
		481.5,47 481.3,47.2 481.1,47.3 480.9,47.5 480.7,47.7 480.5,47.8 480.3,48 480.1,48.2 480,48.4 479.8,48.6 479.6,48.8 479.4,49 
		479.3,49.2 479.1,49.4 479,49.7 478.8,49.9 478.7,50.1 478.6,50.3 478.4,50.6 478.3,50.8 478.2,51 478.1,51.3 478,51.5 477.9,51.8 
		477.9,52 477.8,52.2 477.8,52.4 477.7,52.6 477.6,52.9 477.6,53.1 477.5,53.4 477.5,53.7 477.5,53.9 477.4,54.2 477.4,54.5 
		477.4,54.7 477.4,55 477.4,55.3 477.4,55.6 477.4,55.9 477.4,56.2 477.4,56.5 477.4,56.7 477.4,57 477.5,57.3 477.5,57.6 
		477.6,57.8 477.6,58.1 477.7,58.3 477.7,58.6 477.8,58.8 477.9,59.1 478,59.3 478,59.6 478.1,59.8 478.2,60 478.3,60.2 478.5,60.4 
		478.6,60.7 478.7,60.9 478.8,61 478.9,61.2 479.1,61.4 479.2,61.6 479.4,61.8 479.6,62 479.8,62.2 480,62.3 480.1,62.5 480.3,62.7 
		480.6,62.9 480.8,63 481,63.2 481.2,63.4 481.4,63.6 481.7,63.7 482.2,64 482.7,64.3 483.2,64.6 483.7,64.9 484.3,65.2 484.9,65.5 
		486,66 486.9,66.3 488.1,66.8 490.5,67.7 498.6,70.4 503.5,72.2 504.8,72.7 505.5,73 506.2,73.3 506.8,73.7 507.5,74 508.2,74.4 
		508.8,74.7 509.4,75.1 510.1,75.5 510.7,75.9 511.3,76.3 511.9,76.8 512.5,77.2 513.1,77.7 513.7,78.2 514.3,78.7 514.8,79.3 
		515.3,79.8 515.9,80.4 516.3,81 516.8,81.6 517.3,82.2 517.7,82.8 518.1,83.5 518.5,84.1 518.9,84.8 519.1,85.2 519.2,85.6 
		519.4,85.9 519.6,86.3 519.7,86.7 519.9,87.1 520,87.4 520.2,87.8 520.3,88.2 520.4,88.5 520.6,89.3 520.8,90 521,90.8 521.1,91.5 
		521.2,92.3 521.3,93 521.4,93.7 521.4,94.5 521.5,95.2 521.5,96 521.5,96.8 521.5,97.7 521.5,98.4 521.5,99.2 521.4,99.9 
		521.4,100.6 521.3,101.4 521.2,102.1 521,102.9 520.9,103.6 520.7,104.4 520.5,105.1 520.3,105.8 520,106.6 519.8,107.3 519.5,108 
		519.3,108.4 519.1,108.7 518.9,109.2 518.5,109.9 518.2,110.6 517.7,111.2 517.3,111.9 516.9,112.5 516.5,113.1 516,113.7 
		515.5,114.3 515,114.9 514.5,115.4 514,116 513.5,116.5 512.9,117 512.3,117.5 511.7,118 511.1,118.5 510.6,118.8 510.1,119.2 
		509.6,119.5 509.1,119.9 508.5,120.3 507.8,120.6 507.1,121 506.5,121.3 505.8,121.7 505.1,122 504.4,122.3 503.7,122.5 503,122.8 
		502.3,123.1 501.6,123.3 500.9,123.5 500.2,123.7 499.5,123.9 498.6,124.1 497.2,124.4 495.7,124.7 494.3,124.9 493.4,125 
		492.5,125.1 491,125.2 489.6,125.3 488.1,125.3 486.7,125.3 485.2,125.2 483.8,125.1 482.3,124.9 480.9,124.7 480.1,124.6 
		479.3,124.4 478.6,124.3 477.9,124.1 477.1,123.9 476.4,123.7 475.7,123.5 475,123.3 474.3,123.1 473.6,122.8 472.9,122.6 
		472.2,122.3 471.6,122 470.9,121.7 470.2,121.4 469.5,121.1 468.9,120.7 468.2,120.4 467.6,120 467,119.6 466.4,119.2 465.8,118.8 
		465.1,118.3 464.6,117.9 464,117.4 463.6,117.1 463.2,116.8 462.7,116.2 462.1,115.7 461.6,115.1 461.1,114.5 460.6,113.9 
		460.1,113.3 459.6,112.7 459.2,112 457.8,109.9 459.7,108.2 467.5,101.9 468,101.5 468.3,101.3 468.6,101 	"/>
</g>
<g id="POLYLINE_23_">
	<polygon class="st0" points="396,85.1 396,106.7 444.8,106.7 444.8,123 379.7,123 379.7,30.9 444.8,30.9 444.8,47.1 396,47.1 
		396,68.8 433.9,68.8 433.9,85.1 	"/>
</g>
<g id="POLYLINE_39_">
	<polygon class="st0" points="357.9,56.3 366,34.5 367.4,30.9 363.5,30.9 357.9,30.9 352.6,30.9 350.7,30.9 350.1,32.7 343.3,51.7 
		329.8,89.6 325.5,101.4 321.3,89.6 307.8,51.7 301,32.7 300.4,30.9 298.5,30.9 293.2,30.9 287.6,30.9 283.7,30.9 318.3,123 
		332.8,123 349.8,77.9 	"/>
</g>
<path class="st0" d="M198,119.3l-8.1-21.7L181.8,76l-16.9-45.1h-14.6L115.7,123h3.9h2.8h2.7h5.3h1.9l8.1-21.7h34.2l7.5,19.9l0.7,1.8
	h1.9h5.3h2.7h2.8h3.9L198,119.3z M157.6,85.1h-11l11-29.3l11,29.3H157.6z"/>
<g id="POLYLINE_58_">
	<polygon class="st0" points="14,68.8 14,85.1 30.2,85.1 30.2,123 46.5,123 46.5,85.1 79,85.1 79,123 95.2,123 95.2,85.1 
		111.5,85.1 111.5,68.8 95.2,68.8 95.2,30.9 79,30.9 79,68.8 46.5,68.8 46.5,30.9 30.2,30.9 30.2,68.8 	"/>
</g>
<path class="st0" d="M249.6,90c15.2-2.8,25.7-16.7,24.3-32c-1.4-15.4-14.3-27.1-29.7-27.1c-11.7,0-23.5,0-35.2,0
	c0,30.7,0,61.4,0,92.1c5.4,0,10.8,0,16.3,0c0-12.3,0-24.5,0-36.8c10.2,12.3,20.5,24.5,30.7,36.8c7.1,0,14.1,0,21.2,0
	C268,112,258.8,101,249.6,90z M225.3,74.2c0-9,0-18.1,0-27.1c6.3,0,12.6,0,19,0c7.5,0,13.5,6.1,13.5,13.5c0,7.5-6.1,13.5-13.5,13.5
	C237.9,74.2,231.6,74.2,225.3,74.2z"/>
</svg>
