<svg width="48" height="48" viewBox="0 0 48 48" fill="none" xmlns="http://www.w3.org/2000/svg">
<path d="M3.04749 15.5C6.66352 7.53741 14.6851 2 24 2C33.315 2 41.3366 7.53741 44.9526 15.5" stroke="#D19F33" stroke-width="2"/>
<path d="M45.5891 32.4572C41.9731 40.4197 33.9515 45.9572 24.6366 45.9572C15.3216 45.9572 7.30004 40.4197 3.68401 32.4572" stroke="#D19F33" stroke-width="2"/>
<path d="M46.2183 11.4772L44.9928 15.539L40.931 14.3135" stroke="#D19F33" stroke-width="2"/>
<path d="M2.41821 36.48L3.64365 32.4182L7.70546 33.6436" stroke="#D19F33" stroke-width="2"/>
<path d="M24.0006 34.8805C29.9998 34.8805 34.8802 30.0001 34.8802 24.0009C34.8802 18.0018 29.9998 13.1213 24.0006 13.1213C18.0014 13.1213 13.121 18.0018 13.121 24.0009C13.121 30.0001 18.0014 34.8805 24.0006 34.8805ZM24.0006 14.4013C29.2938 14.4013 33.6002 18.7077 33.6002 24.0009C33.6002 29.2942 29.2938 33.6006 24.0006 33.6006C18.7073 33.6006 14.4009 29.2942 14.4009 24.0009C14.4009 18.7077 18.7073 14.4013 24.0006 14.4013Z" fill="#151A1F"/>
<path d="M11.122 20.0199C10.9965 20.455 10.6803 20.793 10.276 20.9241L8.56096 21.4816C8.32354 21.559 8.15326 21.7664 8.12326 22.0141C8.04183 22.6932 8.00098 23.3612 8.00098 24.0006C8.00098 24.64 8.04183 25.308 8.12383 25.9871C8.15326 26.2348 8.32411 26.4422 8.56153 26.5196L10.2766 27.077C10.6811 27.2082 10.9971 27.5467 11.1225 27.9819C11.1845 28.197 11.2517 28.4101 11.3234 28.6213C11.4719 29.059 11.4054 29.5384 11.1442 29.9032L10.1215 31.3329C9.97746 31.5346 9.96203 31.8006 10.0832 32.0177C10.7366 33.1857 11.534 34.2716 12.4523 35.2459C12.6262 35.4307 12.892 35.4942 13.1299 35.4104L14.6767 34.867C15.0716 34.7288 15.5093 34.8068 15.8472 35.0756C16.0161 35.2099 16.1884 35.3405 16.3629 35.4667C16.7226 35.7253 16.9338 36.1501 16.9286 36.6033L16.9106 38.1655C16.9081 38.4163 17.0515 38.6454 17.2781 38.7523C18.5003 39.3283 19.7963 39.7448 21.1287 39.9906C21.1673 39.9968 21.2056 40 21.2439 40C21.453 40 21.6521 39.8968 21.7724 39.7203L22.6007 38.5055C22.8458 38.1458 23.2495 37.9544 23.6706 37.9475C23.8895 37.9532 24.1098 37.9532 24.3298 37.9475C24.756 37.9238 25.154 38.1458 25.3991 38.5055L26.2265 39.7203C26.3693 39.9303 26.6213 40.0357 26.8716 39.9891C28.2042 39.7434 29.4993 39.3269 30.7223 38.7509C30.9489 38.644 31.0923 38.4149 31.0897 38.1646L31.0717 36.6024C31.0666 36.1493 31.2777 35.7244 31.6368 35.4659C31.8117 35.3399 31.9837 35.2099 32.1525 35.0756C32.4905 34.8068 32.9277 34.7273 33.3237 34.867L34.8704 35.4105C35.1084 35.4936 35.3747 35.4302 35.5481 35.2459C36.4664 34.2725 37.2632 33.1866 37.9166 32.0177C38.0375 31.8014 38.0229 31.5346 37.8789 31.3329L36.8561 29.9032C36.595 29.5383 36.5278 29.0589 36.677 28.6213C36.7487 28.4101 36.8158 28.197 36.8778 27.9819C37.0032 27.5467 37.3195 27.2088 37.7238 27.0776L39.4388 26.5202C39.6762 26.4428 39.8465 26.2354 39.8765 25.9877C39.9588 25.308 39.9997 24.64 39.9997 24.0006C39.9997 23.3612 39.9588 22.6932 39.8768 22.0141C39.8474 21.7664 39.6765 21.559 39.4391 21.4816L37.724 20.9242C37.3195 20.793 37.0035 20.4545 36.8781 20.0193C36.8161 19.8042 36.749 19.5911 36.6773 19.3799C36.5287 18.9422 36.5953 18.4628 36.8564 18.098L37.8792 16.6683C38.0232 16.4666 38.0386 16.2006 37.9175 15.9835C37.2641 14.8155 36.4667 13.7296 35.5484 12.7553C35.375 12.571 35.1081 12.5065 34.8707 12.5907L33.3239 13.1342C32.9297 13.2736 32.492 13.195 32.1534 12.9256C31.9845 12.7913 31.8123 12.6607 31.6377 12.5345C31.278 12.2759 31.0669 11.8511 31.072 11.3979L31.09 9.83573C31.0926 9.58488 30.9491 9.35575 30.7226 9.2489C29.5003 8.67292 28.2044 8.25639 26.8719 8.01063C26.6236 7.96578 26.3696 8.07092 26.2274 8.27948L25.3991 9.49427C25.154 9.85397 24.7586 10.0537 24.3291 10.0522C24.1103 10.0465 23.89 10.0465 23.67 10.0522C23.2303 10.0625 22.8457 9.85397 22.6007 9.49427L21.7733 8.27948C21.6304 8.07035 21.379 7.96464 21.1282 8.01063C19.7956 8.25634 18.5005 8.6729 17.2775 9.2489C17.0509 9.35575 16.9075 9.58489 16.9101 9.83516L16.9281 11.3974C16.9332 11.8505 16.7221 12.2753 16.3629 12.5339C16.1881 12.6599 16.0161 12.7899 15.8472 12.9242C15.5093 13.193 15.0716 13.271 14.6761 13.1327L13.1294 12.5893C12.8905 12.5056 12.6251 12.5702 12.4517 12.7539C11.5334 13.7273 10.7366 14.8132 10.0832 15.9821C9.96232 16.1983 9.97689 16.4652 10.1209 16.6669L11.1437 18.0966C11.4048 18.4614 11.4714 18.9408 11.3222 19.3785C11.252 19.5919 11.1848 19.8051 11.122 20.0199ZM12.1856 17.3546L11.4022 16.2595C11.8937 15.4332 12.4645 14.6558 13.1039 13.939L14.2521 14.3421C15.0655 14.6275 15.9595 14.4721 16.6443 13.9273C16.7972 13.8055 16.9529 13.6878 17.1109 13.5741C17.8077 13.0719 18.218 12.2533 18.2077 11.3842L18.1943 10.2394C19.0805 9.85231 20.0054 9.55461 20.9525 9.35174L21.5413 10.2163C22.0327 10.9374 22.8444 11.3511 23.7006 11.3331C23.8998 11.3285 24.1 11.3285 24.2972 11.3331C25.1637 11.3605 25.9656 10.9377 26.4565 10.2163L27.0465 9.35145C27.9941 9.55429 28.919 9.852 29.8055 10.2391L29.7921 11.3839C29.7824 12.2531 30.1927 13.0716 30.8898 13.5738C31.0478 13.6878 31.2035 13.8055 31.3563 13.927C32.0417 14.4721 32.9357 14.6278 33.7491 14.3418L34.8974 13.9387C35.5373 14.6555 36.1076 15.4337 36.599 16.2592L35.8156 17.3534C35.3151 18.0528 35.1845 18.9642 35.4662 19.7916C35.5314 19.9842 35.5922 20.1782 35.6494 20.3748C35.8925 21.2181 36.521 21.8787 37.3293 22.1418L38.6501 22.5707C38.6961 23.0598 38.7199 23.5392 38.7199 24.0006C38.7199 24.4621 38.6961 24.9414 38.6496 25.4303L37.3293 25.8592C36.5205 26.1214 35.8925 26.782 35.6488 27.6262C35.5925 27.8228 35.5311 28.0165 35.4656 28.2085C35.1839 29.0353 35.3154 29.9472 35.8151 30.6467L36.5979 31.7418C36.1065 32.5681 35.5357 33.3455 34.8962 34.0623L33.748 33.6592C32.9331 33.3732 32.0406 33.5286 31.3558 34.074C31.2029 34.1958 31.0472 34.3135 30.8892 34.4272C30.1924 34.9294 29.7821 35.748 29.7924 36.6171L29.8058 37.7619C28.9196 38.149 27.9947 38.4467 27.0476 38.6496L26.4588 37.785C25.9794 37.0816 25.2 36.6677 24.364 36.6677C24.3423 36.6677 24.3211 36.6677 24.2994 36.6683C24.1003 36.6728 23.9 36.6728 23.7029 36.6683C22.8312 36.6485 22.0344 37.0637 21.5436 37.7851L20.9542 38.6499C20.0065 38.4471 19.0816 38.1494 18.1951 37.7622L18.2085 36.6174C18.2182 35.7483 17.808 34.9298 17.1108 34.4275C16.9528 34.3135 16.7971 34.1958 16.6443 34.0744C15.9589 33.5293 15.0649 33.373 14.2515 33.6596L13.1033 34.0627C12.4633 33.3459 11.893 32.5676 11.4016 31.7422L12.185 30.6479C12.6856 29.9485 12.8161 29.0371 12.5344 28.2097C12.4693 28.0172 12.4084 27.8232 12.3513 27.6266C12.1081 26.7832 11.4796 26.1227 10.6713 25.8595L9.35048 25.4307C9.30448 24.9416 9.28076 24.4622 9.28076 24.0007C9.28076 23.5393 9.30448 23.0599 9.35105 22.571L10.6719 22.1422C11.4807 21.8791 12.1087 21.2188 12.3518 20.3751C12.4081 20.1786 12.4696 19.9849 12.535 19.7929C12.8167 18.966 12.6861 18.0541 12.1856 17.3547L12.1856 17.3546Z" fill="#151A1F"/>
<line x1="28" y1="29" x2="28" y2="19" stroke="#D19F33" stroke-width="3"/>
<line x1="23.5" y1="29" x2="23.5" y2="22" stroke="#D19F33" stroke-width="3"/>
<line x1="19" y1="29" x2="19" y2="25" stroke="#D19F33" stroke-width="3"/>
</svg>
