<svg width="48" height="48" viewBox="0 0 48 48" fill="none" xmlns="http://www.w3.org/2000/svg">
<path d="M27.5749 29.4683L22.2126 28.2308C21.8689 28.162 21.5939 28.2996 21.4563 28.5745L19.4625 32.4245L18.8439 30.6371L19.8751 28.4372C20.0127 28.2311 19.9439 27.9559 19.8063 27.7498C19.6687 27.5437 19.4626 27.4061 19.2562 27.4061H14.3751C14.169 27.4061 13.8937 27.5437 13.8249 27.7498C13.6873 27.9559 13.6873 28.2311 13.7561 28.4372L14.7873 30.6371L14.1687 32.4245L12.3125 28.5745C12.1749 28.2996 11.8312 28.162 11.5563 28.2308L6.19395 29.4683C3.71889 30.087 2 32.2872 2 34.8307V45.0748C2 45.4873 2.27491 45.7622 2.68742 45.7622H31.1497C31.5622 45.7622 31.8371 45.4873 31.8371 45.0748L31.8374 34.8307C31.8374 32.2871 30.1185 30.0869 27.5749 29.4683ZM18.225 28.9182L17.6748 29.9494H16.0247L15.4746 28.9182H18.225ZM16.1624 31.3245H17.6748L18.6375 34.1433L16.9186 37.5808L15.1997 34.1433L16.1624 31.3245ZM30.462 44.3869H3.37466V34.8307C3.37466 32.9057 4.68098 31.2557 6.5372 30.8431L11.3498 29.7432L13.8248 34.5557L16.2999 39.5056C16.506 39.9869 17.2625 39.9869 17.5374 39.5056L22.4873 29.7433L27.2999 30.8432C29.156 31.2557 30.4624 32.9058 30.4624 34.8308L30.462 44.3869Z" fill="#D19F33"/>
<path d="M16.9194 25.7559C21.2507 25.7559 23.9319 22.5246 23.9319 17.2308C23.9319 11.9372 21.2507 8.70563 16.9194 8.70563C12.5882 8.70563 9.90698 11.937 9.90698 17.2308C9.90698 22.5247 12.5882 25.7559 16.9194 25.7559ZM16.9194 10.0814C22.1446 10.0814 22.557 15.5126 22.557 17.2314C22.557 18.95 22.1445 24.3812 16.9194 24.3812C11.6943 24.3812 11.2818 18.95 11.2818 17.2312C11.2822 15.5126 11.6947 10.0814 16.9194 10.0814Z" fill="#D19F33"/>
<path d="M43.8688 2.99988H28.1934C27.0247 2.99988 26.0624 3.96217 26.0624 5.13092V19.9122C26.0624 20.1871 26.2 20.3935 26.4061 20.5308C26.5437 20.5996 26.6122 20.5996 26.7498 20.5996C26.8874 20.5996 27.0247 20.5996 27.0935 20.5308L31.6309 17.712H43.8685C45.0372 17.712 45.9999 16.7493 45.9999 15.5806V5.13118C45.9999 3.96244 45.0372 3.00015 43.8685 3.00015L43.8688 2.99988ZM44.625 15.5121C44.625 15.9246 44.2813 16.2683 43.8688 16.2683H31.4943C31.3567 16.2683 31.2194 16.3372 31.1506 16.3372L27.4379 18.6746V5.13057C27.4379 4.71805 27.7816 4.37434 28.1941 4.37434H43.8695C44.282 4.37434 44.6257 4.71805 44.6257 5.13057L44.625 15.5121Z" fill="#151A1F"/>
<path d="M31.6999 7.81243H40.3628C40.7753 7.81243 41.0502 7.53752 41.0502 7.125C41.0502 6.71249 40.7753 6.43758 40.3628 6.43758L31.6999 6.43726C31.2874 6.43726 31.0125 6.71216 31.0125 7.12468C31.0125 7.53719 31.2874 7.81243 31.6999 7.81243Z" fill="#151A1F"/>
<path d="M42.6317 9.59973H29.4316C29.019 9.59973 28.7441 9.87464 28.7441 10.2872C28.7441 10.6997 29.019 10.9746 29.4316 10.9746H42.6317C43.0442 10.9746 43.3191 10.6997 43.3191 10.2872C43.3191 9.87464 42.9754 9.59973 42.6317 9.59973Z" fill="#151A1F"/>
<path d="M40.3628 12.8313H31.6999C31.2874 12.8313 31.0125 13.1062 31.0125 13.5187C31.0125 13.9312 31.2874 14.2061 31.6999 14.2061H40.3628C40.7753 14.2061 41.0502 13.9312 41.0502 13.5187C41.0502 13.1062 40.7065 12.8313 40.3628 12.8313Z" fill="#151A1F"/>
</svg>
