<svg width="48" height="48" viewBox="0 0 48 48" fill="none" xmlns="http://www.w3.org/2000/svg">
<path d="M27.5749 29.4684L22.2126 28.2309C21.8689 28.1621 21.5939 28.2997 21.4563 28.5746L19.4625 32.4245L18.8439 30.6372L19.8751 28.4373C20.0127 28.2312 19.9439 27.9559 19.8063 27.7498C19.6687 27.5437 19.4626 27.4061 19.2562 27.4061H14.3751C14.169 27.4061 13.8937 27.5437 13.8249 27.7498C13.6873 27.9559 13.6873 28.2312 13.7561 28.4373L14.7873 30.6372L14.1687 32.4245L12.3125 28.5746C12.1749 28.2997 11.8312 28.1621 11.5563 28.2309L6.19395 29.4684C3.71889 30.087 2 32.2873 2 34.8308V45.0748C2 45.4873 2.27491 45.7622 2.68742 45.7622H31.1497C31.5622 45.7622 31.8371 45.4873 31.8371 45.0748L31.8374 34.8308C31.8374 32.2872 30.1185 30.087 27.5749 29.4684ZM18.225 28.9183L17.6748 29.9494H16.0247L15.4746 28.9183H18.225ZM16.1624 31.3246H17.6748L18.6375 34.1434L16.9186 37.5808L15.1997 34.1434L16.1624 31.3246ZM30.462 44.3869H3.37466V34.8308C3.37466 32.9058 4.68098 31.2558 6.5372 30.8432L11.3498 29.7432L13.8248 34.5558L16.2999 39.5057C16.506 39.987 17.2625 39.987 17.5374 39.5057L22.4873 29.7433L27.2999 30.8433C29.156 31.2558 30.4624 32.9059 30.4624 34.8309L30.462 44.3869Z" fill="#D19F33"/>
<path d="M16.9194 25.756C21.2507 25.756 23.9319 22.5247 23.9319 17.2308C23.9319 11.9373 21.2507 8.70569 16.9194 8.70569C12.5882 8.70569 9.90698 11.937 9.90698 17.2308C9.90698 22.5248 12.5882 25.756 16.9194 25.756ZM16.9194 10.0815C22.1446 10.0815 22.557 15.5127 22.557 17.2315C22.557 18.9501 22.1445 24.3813 16.9194 24.3813C11.6943 24.3813 11.2818 18.9501 11.2818 17.2313C11.2822 15.5127 11.6947 10.0815 16.9194 10.0815Z" fill="#D19F33"/>
<path fill-rule="evenodd" clip-rule="evenodd" d="M43.8689 2.99988H28.1935C27.0248 2.99988 26.0625 3.96217 26.0625 5.13092V19.9122C26.0625 20.1871 26.2001 20.3935 26.4062 20.5308C26.5438 20.5996 26.6123 20.5996 26.7499 20.5996C26.8875 20.5996 27.0248 20.5996 27.0936 20.5308L31.631 17.712H43.8686C45.0374 17.712 46 16.7493 46 15.5806V5.13118C46 3.96244 45.0376 2.99988 43.8689 2.99988ZM29.8126 6.8125C29.8126 6.26022 30.2603 5.8125 30.8126 5.8125H41.2813C41.8336 5.8125 42.2813 6.26022 42.2813 6.8125C42.2813 7.36478 41.8336 7.8125 41.2813 7.8125H30.8126C30.2603 7.8125 29.8126 7.36478 29.8126 6.8125ZM30.5 13.7188C30.5 13.1665 30.9477 12.7188 31.5 12.7188L40.5625 12.7188C41.1148 12.7188 41.5625 13.1665 41.5625 13.7188C41.5625 14.271 41.1148 14.7188 40.5625 14.7188L31.5 14.7188C30.9477 14.7188 30.5 14.271 30.5 13.7188ZM29.3125 9.26562C28.7602 9.26562 28.3125 9.71334 28.3125 10.2656C28.3125 10.8179 28.7602 11.2656 29.3125 11.2656L42.75 11.2656C43.3023 11.2656 43.75 10.8179 43.75 10.2656C43.75 9.71334 43.3023 9.26563 42.75 9.26563L29.3125 9.26562Z" fill="#151A1F"/>
</svg>
