<svg width="48" height="48" viewBox="0 0 48 48" fill="none" xmlns="http://www.w3.org/2000/svg">
<path d="M45.2779 26.2627H16.9323C16.5148 26.2627 16.1732 26.6043 16.1732 27.0218V32.3358H9.84962C9.4321 32.3358 9.09049 32.6774 9.09049 33.0949V38.4088H2.75913C2.34161 38.4088 2 38.7505 2 39.168V45.241C2 45.6586 2.34161 46.0002 2.75913 46.0002H45.2706C45.6882 46.0002 46.0298 45.6586 46.0298 45.241V27.0218C46.0298 26.6043 45.6956 26.2627 45.2706 26.2627H45.2779ZM24.7813 38.4088V33.854H37.4359V38.4088H24.7813ZM38.9541 33.854H44.5185V38.4088H38.9541V33.854ZM31.8714 27.781H44.526V32.3358H31.8714V27.781ZM17.6986 27.781H30.3532V32.3358H17.6908V27.781H17.6986ZM10.6081 33.854H23.2558V38.4088H10.609V33.854H10.6081ZM16.1726 44.4819H3.51801V39.9271H16.1726V44.4819ZM30.3454 44.4819H17.6908V39.9271H30.3454V44.4819ZM44.5182 44.4819H31.8636V39.9271H44.5182V44.4819Z" fill="#D19F33"/>
<path d="M10.2206 11.452C10.5168 11.7482 10.9038 11.8923 11.2909 11.8923C11.6779 11.8923 12.0727 11.7404 12.3689 11.452L12.9078 10.9132L15.0561 13.0615L12.1334 15.9842C11.769 16.3485 11.6094 16.8724 11.7233 17.3812C11.8297 17.8899 12.1862 18.2996 12.6722 18.482L23.7174 22.604C23.892 22.6725 24.0743 22.7026 24.2563 22.7026C24.6511 22.7026 25.0307 22.5508 25.3191 22.2546C25.744 21.8296 25.881 21.2146 25.6681 20.653L21.5461 9.60779C21.3637 9.1218 20.954 8.76529 20.4453 8.65883C19.9366 8.54496 19.413 8.70424 19.0483 9.0689L16.1256 11.9916L13.9773 9.8433L14.5161 9.30445C15.1082 8.7124 15.1082 7.74818 14.5161 7.15615L10.2196 2.85962C9.07344 1.71346 7.06924 1.71346 5.92308 2.85962C5.34628 3.42897 5.03485 4.19552 5.03485 5.00793C5.03485 5.82027 5.35376 6.57938 5.92308 7.15623L10.2196 11.4528L10.2206 11.452ZM20.1197 10.1388L24.2418 21.184L13.1966 17.0619L16.1193 14.1392L16.6581 14.678C16.81 14.8299 16.9998 14.8983 17.197 14.8983C17.3942 14.8983 17.584 14.8224 17.7358 14.678C18.032 14.3818 18.032 13.9037 17.7358 13.6078L17.197 13.0689L20.1197 10.1462L20.1197 10.1388ZM7.00188 3.9366C7.29028 3.6482 7.66984 3.48858 8.07212 3.48858C8.47441 3.48858 8.86176 3.64785 9.14237 3.9366L13.4389 8.23313L11.2906 10.3814L6.99407 6.08491C6.70567 5.79651 6.54604 5.41694 6.54604 5.01466C6.54604 4.61239 6.70532 4.22502 6.99407 3.94441L7.00188 3.9366Z" fill="#151A1F"/>
</svg>
