<svg width="48" height="48" viewBox="0 0 48 48" fill="none" xmlns="http://www.w3.org/2000/svg">
<path fill-rule="evenodd" clip-rule="evenodd" d="M11.4022 16.2595L12.1856 17.3546C12.6862 18.054 12.8167 18.966 12.535 19.7929C12.4696 19.9849 12.4081 20.1786 12.3518 20.3751C12.1087 21.2188 11.4807 21.8791 10.6719 22.1422L9.35105 22.571C9.30448 23.0599 9.28076 23.5393 9.28076 24.0007C9.28076 24.4622 9.30447 24.9415 9.35047 25.4307L10.6713 25.8595C11.4796 26.1227 12.1081 26.7832 12.3513 27.6266C12.4084 27.8231 12.4693 28.0171 12.5344 28.2097C12.8161 29.0371 12.6855 29.9485 12.185 30.6479L11.4016 31.7422C11.893 32.5676 12.4633 33.3458 13.1033 34.0627L14.2515 33.6596C15.0649 33.373 15.9589 33.5293 16.6443 34.0744C16.7971 34.1958 16.9528 34.3135 17.1108 34.4275C17.808 34.9298 18.2182 35.7483 18.2085 36.6174L18.1951 37.7622C19.0816 38.1494 20.0065 38.4471 20.9542 38.6499L21.5436 37.7851C22.0344 37.0637 22.8312 36.6485 23.7029 36.6682C23.9 36.6728 24.1003 36.6728 24.2994 36.6682C24.3211 36.6677 24.3423 36.6677 24.364 36.6677C25.2 36.6677 25.9794 37.0816 26.4588 37.785L27.0476 38.6496C27.9947 38.4467 28.9196 38.149 29.8058 37.7619L29.7924 36.6171C29.7821 35.748 30.1924 34.9294 30.8892 34.4272C31.0472 34.3135 31.2029 34.1958 31.3558 34.074C32.0406 33.5286 32.9331 33.3732 33.748 33.6592L34.8962 34.0623C35.5357 33.3455 36.1065 32.5681 36.5979 31.7418L35.8151 30.6467C35.3154 29.9472 35.1839 29.0353 35.4656 28.2085C35.5311 28.0165 35.5925 27.8228 35.6488 27.6262C35.8925 26.782 36.5205 26.1214 37.3293 25.8592L38.6496 25.4303C38.6961 24.9414 38.7199 24.4621 38.7199 24.0006C38.7199 23.5392 38.6961 23.0598 38.6501 22.5707L37.3293 22.1418C36.521 21.8787 35.8925 21.2181 35.6493 20.3748C35.5922 20.1782 35.5314 19.9842 35.4662 19.7916C35.1845 18.9642 35.3151 18.0528 35.8156 17.3534L36.599 16.2592C36.1076 15.4337 35.5373 14.6555 34.8973 13.9387L33.7491 14.3418C32.9357 14.6278 32.0417 14.4721 31.3563 13.927C31.2035 13.8055 31.0478 13.6878 30.8898 13.5738C30.1927 13.0716 29.7824 12.2531 29.7921 11.3839L29.8055 10.2391C28.919 9.852 27.9941 9.55429 27.0465 9.35144L26.4565 10.2162C25.9656 10.9377 25.1637 11.3605 24.2972 11.3331C24.1 11.3285 23.8998 11.3285 23.7006 11.3331C22.8444 11.3511 22.0327 10.9374 21.5413 10.2162L20.9525 9.35173C20.0054 9.5546 19.0805 9.8523 18.1943 10.2394L18.2077 11.3842C18.218 12.2533 17.8077 13.0718 17.1109 13.5741C16.9529 13.6878 16.7972 13.8055 16.6443 13.9272C15.9595 14.4721 15.0655 14.6275 14.2521 14.3421L13.1039 13.939C12.4644 14.6558 11.8936 15.4332 11.4022 16.2595ZM33.6001 24.001C33.6001 18.7077 29.2937 14.4013 24.0005 14.4013C18.7072 14.4013 14.4008 18.7077 14.4008 24.001C14.4008 29.2942 18.7072 33.6006 24.0005 33.6006C29.2937 33.6006 33.6001 29.2942 33.6001 24.001Z" fill="#151A1F"/>
<path d="M3.04749 15.5C6.66352 7.53741 14.6851 2 24 2C33.315 2 41.3366 7.53741 44.9526 15.5" stroke="#D19F33" stroke-width="2"/>
<path d="M45.5891 32.4572C41.9731 40.4197 33.9515 45.9572 24.6366 45.9572C15.3216 45.9572 7.30004 40.4197 3.68401 32.4572" stroke="#D19F33" stroke-width="2"/>
<path d="M46.2183 11.4772L44.9928 15.539L40.931 14.3135" stroke="#D19F33" stroke-width="2"/>
<path d="M2.41821 36.48L3.64365 32.4182L7.70546 33.6436" stroke="#D19F33" stroke-width="2"/>
<line x1="28" y1="29" x2="28" y2="19" stroke="#D19F33" stroke-width="3"/>
<line x1="23.5" y1="29" x2="23.5" y2="22" stroke="#D19F33" stroke-width="3"/>
<line x1="19" y1="29" x2="19" y2="25" stroke="#D19F33" stroke-width="3"/>
</svg>
